<svg xmlns="http://www.w3.org/2000/svg" viewBox="0 0 24 24"><defs><style>.a{fill:none;}.b{fill:#f09735;}.c{fill:#dd821e;}</style></defs><title>FullStar_24</title><rect class="a" width="24" height="24"/><polyline class="b" points="12 5.32 13.55 9.83 13.78 10.48 14.47 10.5 19.2 10.63 15.43 13.59 14.9 14.01 15.09 14.65 16.43 19.29 12.58 16.58 12 16.17 11.43 16.58 7.57 19.3 8.91 14.65 9.1 14.01 8.57 13.59 4.8 10.63 9.53 10.5 10.22 10.48 10.45 9.83 12 5.32"/><path class="c" d="M12,5.32l1.55,4.51.23.65.69,0,4.73.12-3.77,3L14.9,14l.19.64,1.34,4.64-3.85-2.71L12,16.17l-.57.41L7.57,19.3l1.34-4.65L9.1,14l-.53-.42-3.77-3,4.73-.12.69,0,.23-.65L12,5.32M9.5,9.5l-6.13.16a.5.5,0,0,0-.29.89L8,14.38l-1.74,6a.49.49,0,0,0,.76.54l5-3.55,5,3.55a.49.49,0,0,0,.76-.54l-1.74-6,4.87-3.83a.5.5,0,0,0-.29-.89L14.5,9.5l-2-5.88a.5.5,0,0,0-.94,0Z"/></svg>